<svg width="93" height="22" viewBox="0 0 93 22" fill="none" xmlns="http://www.w3.org/2000/svg">
<path d="M0.983484 14.382L5.82348 8.794H11.1695L6.32948 14.382H0.983484ZM0.983484 17V14.382L3.55748 13.568H11.0375V17H0.983484ZM1.35748 9.608V6.176H11.1695V8.794L8.59548 9.608H1.35748ZM12.7483 17V6.176H17.0603V17H12.7483ZM14.9043 5.164C14.2737 5.164 13.7457 4.95133 13.3203 4.526C12.9097 4.086 12.7043 3.55067 12.7043 2.92C12.7043 2.28933 12.9097 1.76133 13.3203 1.336C13.7457 0.895999 14.2737 0.675999 14.9043 0.675999C15.5497 0.675999 16.0777 0.895999 16.4883 1.336C16.899 1.76133 17.1043 2.28933 17.1043 2.92C17.1043 3.55067 16.899 4.086 16.4883 4.526C16.0777 4.95133 15.5497 5.164 14.9043 5.164ZM25.7742 17.22C25.1289 17.22 24.5202 17.1173 23.9482 16.912C23.3762 16.692 22.8922 16.3913 22.4962 16.01C22.1002 15.6287 21.8436 15.1887 21.7262 14.69V8.706C21.8436 8.20733 22.1002 7.75267 22.4962 7.342C22.8922 6.91667 23.3762 6.57933 23.9482 6.33C24.5202 6.08067 25.1289 5.956 25.7742 5.956C26.8449 5.956 27.7762 6.198 28.5682 6.682C29.3749 7.15133 29.9982 7.81133 30.4382 8.662C30.8929 9.51267 31.1202 10.488 31.1202 11.588C31.1202 12.688 30.8929 13.6633 30.4382 14.514C29.9982 15.35 29.3749 16.01 28.5682 16.494C27.7762 16.978 26.8449 17.22 25.7742 17.22ZM24.9602 13.436C25.3122 13.436 25.6276 13.3553 25.9062 13.194C26.1849 13.0327 26.3976 12.8127 26.5442 12.534C26.7056 12.2553 26.7862 11.94 26.7862 11.588C26.7862 11.2213 26.7056 10.906 26.5442 10.642C26.3976 10.3633 26.1849 10.1433 25.9062 9.982C25.6422 9.82067 25.3342 9.74 24.9822 9.74C24.6302 9.74 24.3149 9.82067 24.0362 9.982C23.7722 10.1287 23.5596 10.3413 23.3982 10.62C23.2516 10.8987 23.1782 11.2213 23.1782 11.588C23.1782 11.94 23.2516 12.2553 23.3982 12.534C23.5449 12.8127 23.7502 13.0327 24.0142 13.194C24.2929 13.3553 24.6082 13.436 24.9602 13.436ZM19.1082 21.62V6.176H23.4202V8.838L22.7162 11.456L23.3102 14.096V21.62H19.1082ZM31.6202 14.382L36.4602 8.794H41.8062L36.9662 14.382H31.6202ZM31.6202 17V14.382L34.1942 13.568H41.6742V17H31.6202ZM31.9942 9.608V6.176H41.8062V8.794L39.2322 9.608H31.9942ZM48.5623 17.264C47.3743 17.264 46.3109 17.022 45.3723 16.538C44.4483 16.0393 43.7149 15.3573 43.1723 14.492C42.6443 13.6267 42.3803 12.6513 42.3803 11.566C42.3803 10.4807 42.6443 9.51267 43.1723 8.662C43.7003 7.81133 44.4263 7.144 45.3503 6.66C46.2889 6.16133 47.3523 5.912 48.5403 5.912C49.7283 5.912 50.7843 6.16133 51.7083 6.66C52.6323 7.144 53.3583 7.81133 53.8863 8.662C54.4289 9.51267 54.7003 10.4807 54.7003 11.566C54.7003 12.6513 54.4363 13.6267 53.9083 14.492C53.3803 15.3573 52.6543 16.0393 51.7303 16.538C50.8063 17.022 49.7503 17.264 48.5623 17.264ZM48.5403 13.48C48.9069 13.48 49.2223 13.4067 49.4863 13.26C49.7649 13.0987 49.9776 12.8787 50.1243 12.6C50.2709 12.3067 50.3443 11.9693 50.3443 11.588C50.3443 11.2067 50.2636 10.8767 50.1023 10.598C49.9556 10.3047 49.7503 10.0847 49.4863 9.938C49.2223 9.77667 48.9069 9.696 48.5403 9.696C48.1883 9.696 47.8729 9.77667 47.5943 9.938C47.3303 10.0993 47.1176 10.3267 46.9563 10.62C46.8096 10.8987 46.7363 11.2287 46.7363 11.61C46.7363 11.9767 46.8096 12.3067 46.9563 12.6C47.1176 12.8787 47.3303 13.0987 47.5943 13.26C47.8729 13.4067 48.1883 13.48 48.5403 13.48ZM61.4959 17.264C60.3079 17.264 59.2445 17.022 58.3059 16.538C57.3819 16.0393 56.6485 15.3573 56.1059 14.492C55.5779 13.6267 55.3139 12.6513 55.3139 11.566C55.3139 10.4807 55.5779 9.51267 56.1059 8.662C56.6339 7.81133 57.3599 7.144 58.2839 6.66C59.2225 6.16133 60.2859 5.912 61.4739 5.912C62.6619 5.912 63.7179 6.16133 64.6419 6.66C65.5659 7.144 66.2919 7.81133 66.8199 8.662C67.3625 9.51267 67.6339 10.4807 67.6339 11.566C67.6339 12.6513 67.3699 13.6267 66.8419 14.492C66.3139 15.3573 65.5879 16.0393 64.6639 16.538C63.7399 17.022 62.6839 17.264 61.4959 17.264ZM61.4739 13.48C61.8405 13.48 62.1559 13.4067 62.4199 13.26C62.6985 13.0987 62.9112 12.8787 63.0579 12.6C63.2045 12.3067 63.2779 11.9693 63.2779 11.588C63.2779 11.2067 63.1972 10.8767 63.0359 10.598C62.8892 10.3047 62.6839 10.0847 62.4199 9.938C62.1559 9.77667 61.8405 9.696 61.4739 9.696C61.1219 9.696 60.8065 9.77667 60.5279 9.938C60.2639 10.0993 60.0512 10.3267 59.8899 10.62C59.7432 10.8987 59.6699 11.2287 59.6699 11.61C59.6699 11.9767 59.7432 12.3067 59.8899 12.6C60.0512 12.8787 60.2639 13.0987 60.5279 13.26C60.8065 13.4067 61.1219 13.48 61.4739 13.48ZM75.8595 17V10.928C75.8595 10.5027 75.7348 10.18 75.4855 9.96C75.2508 9.72533 74.9501 9.608 74.5835 9.608C74.3341 9.608 74.1068 9.65933 73.9015 9.762C73.7108 9.86467 73.5568 10.0187 73.4395 10.224C73.3368 10.4147 73.2855 10.6493 73.2855 10.928L71.6135 10.18C71.6135 9.3 71.8041 8.54467 72.1855 7.914C72.5815 7.28333 73.1168 6.79933 73.7915 6.462C74.4808 6.12467 75.2581 5.956 76.1235 5.956C76.9008 5.956 77.5901 6.132 78.1915 6.484C78.8075 6.82133 79.2915 7.29067 79.6435 7.892C79.9955 8.47867 80.1715 9.16067 80.1715 9.938V17H75.8595ZM68.9735 17V6.176H73.2855V17H68.9735ZM86.6565 21.972C85.4391 21.972 84.3611 21.7667 83.4225 21.356C82.4838 20.96 81.7578 20.3953 81.2445 19.662L83.7965 17.132C84.1338 17.4987 84.5078 17.7847 84.9185 17.99C85.3291 18.21 85.8278 18.32 86.4145 18.32C87.1185 18.32 87.6685 18.1513 88.0645 17.814C88.4751 17.4767 88.6805 16.9853 88.6805 16.34V13.48L89.3845 11.148L88.7905 8.838V6.176H92.9925V16.164C92.9925 17.352 92.7138 18.3787 92.1565 19.244C91.5991 20.1093 90.8438 20.7767 89.8905 21.246C88.9371 21.73 87.8591 21.972 86.6565 21.972ZM86.4585 16.56C85.4465 16.56 84.5518 16.3253 83.7745 15.856C82.9971 15.3867 82.3885 14.7487 81.9485 13.942C81.5085 13.1353 81.2885 12.2407 81.2885 11.258C81.2885 10.2607 81.5085 9.366 81.9485 8.574C82.3885 7.76733 82.9971 7.12933 83.7745 6.66C84.5518 6.19067 85.4465 5.956 86.4585 5.956C87.0891 5.956 87.6685 6.066 88.1965 6.286C88.7391 6.49133 89.1865 6.78467 89.5385 7.166C89.9051 7.54733 90.1398 7.98733 90.2425 8.486V14.03C90.1398 14.5287 89.9051 14.9687 89.5385 15.35C89.1865 15.7313 88.7391 16.032 88.1965 16.252C87.6685 16.4573 87.0891 16.56 86.4585 16.56ZM87.2505 12.886C87.6025 12.886 87.9031 12.8053 88.1525 12.644C88.4018 12.4827 88.5925 12.2773 88.7245 12.028C88.8565 11.7787 88.9225 11.5147 88.9225 11.236C88.9225 10.9573 88.8565 10.6933 88.7245 10.444C88.5925 10.1947 88.4018 9.98933 88.1525 9.828C87.9178 9.66667 87.6245 9.586 87.2725 9.586C86.9351 9.586 86.6418 9.66667 86.3925 9.828C86.1431 9.98933 85.9525 10.202 85.8205 10.466C85.6885 10.7153 85.6225 10.972 85.6225 11.236C85.6225 11.4853 85.6885 11.742 85.8205 12.006C85.9525 12.2553 86.1358 12.468 86.3705 12.644C86.6198 12.8053 86.9131 12.886 87.2505 12.886Z" fill="#184BFE"/>
</svg>
